<svg width="7" height="13" viewBox="0 0 7 13" fill="none" xmlns="http://www.w3.org/2000/svg">
<path d="M0.31044 12.2703C0.4088 12.3749 0.525624 12.4578 0.654235 12.5144C0.782845 12.571 0.920708 12.6001 1.05993 12.6001C1.19918 12.6001 1.33704 12.571 1.46565 12.5144C1.59426 12.4578 1.71108 12.3749 1.80942 12.2703L6.6891 7.09479C6.78765 6.99048 6.86584 6.86657 6.91919 6.73016C6.97254 6.59376 7 6.44754 7 6.29985C7 6.15219 6.97254 6.00595 6.91919 5.86954C6.86584 5.73314 6.78765 5.60923 6.6891 5.50492L1.80942 0.329365C1.71101 0.224988 1.59416 0.142173 1.46555 0.0856767C1.33696 0.0291801 1.19914 9.77819e-05 1.05993 9.77941e-05C0.920745 9.78062e-05 0.78292 0.0291801 0.65431 0.0856767C0.525718 0.142173 0.408874 0.224989 0.310439 0.329365C0.212023 0.433762 0.133944 0.557689 0.0806874 0.694094C0.0274119 0.830479 -1.01615e-06 0.976679 -1.00325e-06 1.1243C-9.90338e-07 1.27195 0.0274119 1.41813 0.0806875 1.55453C0.133945 1.69092 0.212023 1.81486 0.310439 1.91924L4.43531 6.3055L0.31044 10.6805C-0.104168 11.1202 -0.0935355 11.8419 0.31044 12.2703Z" fill="#384655"/>
</svg>
