<svg width="94" height="93" viewBox="0 0 94 93" fill="none" xmlns="http://www.w3.org/2000/svg">
<rect x="0.5" width="93" height="92.0412" rx="46.0206" fill="#B5C6D7"/>
<path d="M64.3198 65.629C64.683 65.629 65.0642 65.6203 65.4637 65.6028C65.8632 65.584 66.2443 65.5563 66.6075 65.52V52.7745L55.7138 50.5958L49.3957 56.9142C46.6359 55.2438 44.1028 53.2647 41.7963 50.9771C39.4912 48.6895 37.5761 46.2384 36.051 43.6239L42.2604 37.3602L40.2451 26.4121H27.4996C27.4269 26.7752 27.3906 27.1565 27.3906 27.5559V28.6998C27.3906 33.384 28.435 37.9499 30.5236 42.3973C32.6108 46.8463 35.3705 50.7956 38.8027 54.2451C42.2335 57.6949 46.1726 60.4544 50.6201 62.5243C55.0691 64.5942 59.6355 65.629 64.3198 65.629Z" fill="white"/>
</svg>
