<svg width="98" height="96" viewBox="0 0 98 96" fill="none" xmlns="http://www.w3.org/2000/svg">
<rect x="0.554688" width="96.8889" height="96" rx="48" fill="#B6C6D7"/>
<path d="M48.9983 48.4925C50.4344 48.4925 51.6642 47.9776 52.6878 46.9478C53.7096 45.9198 54.2205 44.6833 54.2205 43.2384C54.2205 41.7936 53.7096 40.5562 52.6878 39.5264C51.6642 38.4984 50.4344 37.9844 48.9983 37.9844C47.5622 37.9844 46.3332 38.4984 45.3114 39.5264C44.2878 40.5562 43.776 41.7936 43.776 43.2384C43.776 44.6833 44.2878 45.9198 45.3114 46.9478C46.3332 47.9776 47.5622 48.4925 48.9983 48.4925ZM48.9983 73.7777C48.6501 73.7777 48.302 73.712 47.9538 73.5807C47.6057 73.4493 47.301 73.2742 47.0399 73.0553C40.6862 67.4072 35.9427 62.1645 32.8094 57.3272C29.676 52.4882 28.1094 47.9671 28.1094 43.7639C28.1094 37.1963 30.2096 31.9641 34.41 28.0673C38.6087 24.1706 43.4714 22.2222 48.9983 22.2222C54.5251 22.2222 59.3879 24.1706 63.5865 28.0673C67.7869 31.9641 69.8872 37.1963 69.8872 43.7639C69.8872 47.9671 68.3205 52.4882 65.1872 57.3272C62.0538 62.1645 57.3103 67.4072 50.9566 73.0553C50.6955 73.2742 50.3909 73.4493 50.0427 73.5807C49.6946 73.712 49.3464 73.7777 48.9983 73.7777Z" fill="white"/>
</svg>
