<svg width="98" height="98" viewBox="0 0 98 98" fill="none" xmlns="http://www.w3.org/2000/svg">
<rect x="0.5" width="97" height="97.2597" rx="48.5" fill="#B5C6D7"/>
<path d="M32.6372 64.5368C31.5124 64.5368 30.5498 64.1477 29.7494 63.3696C28.9477 62.5901 28.5469 61.6535 28.5469 60.56V36.6996C28.5469 35.606 28.9477 34.6702 29.7494 33.8921C30.5498 33.1126 31.5124 32.7229 32.6372 32.7229H65.3601C66.4848 32.7229 67.4481 33.1126 68.2499 33.8921C69.0502 34.6702 69.4505 35.606 69.4505 36.6996V60.56C69.4505 61.6535 69.0502 62.5901 68.2499 63.3696C67.4481 64.1477 66.4848 64.5368 65.3601 64.5368H32.6372ZM48.9986 50.2702C49.1691 50.2702 49.3476 50.2449 49.5346 50.1946C49.7226 50.1457 49.902 50.0715 50.0723 49.972L64.5421 41.1735C64.8147 41.0077 65.0192 40.801 65.1556 40.5531C65.2918 40.3039 65.3601 40.0301 65.3601 39.7319C65.3601 39.0691 65.0702 38.572 64.4908 38.2406C63.9113 37.9092 63.315 37.9258 62.7014 38.2903L48.9986 46.6415L35.296 38.2903C34.6824 37.9258 34.0859 37.9172 33.5064 38.2645C32.927 38.6131 32.6372 39.1022 32.6372 39.7319C32.6372 40.0633 32.7054 40.3529 32.8417 40.6008C32.9781 40.85 33.1826 41.0409 33.4553 41.1735L47.9249 49.972C48.0953 50.0715 48.2747 50.1457 48.4628 50.1946C48.6496 50.2449 48.8282 50.2702 48.9986 50.2702Z" fill="white"/>
</svg>
