<svg width="43" height="31" viewBox="0 0 43 31" fill="none" xmlns="http://www.w3.org/2000/svg">
<path d="M42.2249 7.25979C42.2249 3.83206 39.5096 1.07463 36.1546 1.07463C31.61 0.877345 26.9753 0.801178 22.2388 0.801178H20.7622C16.0372 0.801178 11.3943 0.877345 6.84973 1.07539C3.50285 1.07539 0.787608 3.84805 0.787608 7.27578C0.58253 9.98675 0.495577 12.6985 0.500499 15.4102C0.492296 18.1219 0.585264 20.8361 0.779405 23.553C0.779405 26.9807 3.49464 29.761 6.84152 29.761C11.6157 29.9665 16.513 30.058 21.4923 30.0504C26.4797 30.0656 31.3635 29.9691 36.1431 29.761C39.4983 29.761 42.2133 26.9807 42.2133 23.553C42.4103 20.8335 42.5004 18.1219 42.4922 15.4026C42.5109 12.6909 42.4217 9.97659 42.2249 7.25979ZM17.481 22.8826V7.91488L29.3754 15.395L17.481 22.8826Z" fill="white"/>
</svg>
