<svg width="43" height="30" viewBox="0 0 43 30" fill="none" xmlns="http://www.w3.org/2000/svg">
<path d="M4.7 29.9262C3.54501 29.9262 2.55659 29.5714 1.7348 28.8622C0.911616 28.1516 0.5 27.2979 0.5 26.3011V4.55118C0.5 3.55429 0.911616 2.70121 1.7348 1.99193C2.55659 1.28142 3.54501 0.926178 4.7 0.926178H38.2999C39.4548 0.926178 40.4439 1.28142 41.2672 1.99193C42.089 2.70121 42.5 3.55429 42.5 4.55118V26.3011C42.5 27.2979 42.089 28.1516 41.2672 28.8622C40.4439 29.5714 39.4548 29.9262 38.2999 29.9262H4.7ZM21.4999 16.9215C21.675 16.9215 21.8582 16.8984 22.0503 16.8525C22.2433 16.8079 22.4275 16.7403 22.6024 16.6496L37.46 8.62929C37.74 8.47824 37.9499 8.28975 38.09 8.06379C38.2299 7.83661 38.2999 7.5871 38.2999 7.31522C38.2999 6.71105 38.0023 6.25794 37.4073 5.95585C36.8124 5.65377 36.2 5.66888 35.57 6.00116L21.4999 13.6137L7.42998 6.00116C6.79998 5.66888 6.1875 5.66103 5.5925 5.9776C4.99748 6.29539 4.7 6.74126 4.7 7.31522C4.7 7.61731 4.77 7.88133 4.90999 8.10729C5.05 8.33445 5.25999 8.50845 5.53999 8.62929L20.3975 16.6496C20.5725 16.7403 20.7566 16.8079 20.9497 16.8525C21.1415 16.8984 21.3249 16.9215 21.4999 16.9215Z" fill="white"/>
</svg>
